<?xml version="1.0" encoding="UTF-8"?>
<svg width="100px" height="100px" viewBox="0 0 100 100" version="1.1" xmlns="http://www.w3.org/2000/svg" xmlns:xlink="http://www.w3.org/1999/xlink">
    <!-- Generator: Sketch 52.5 (67469) - http://www.bohemiancoding.com/sketch -->
    <title>pay_waiting</title>
    <desc>Created with Sketch.</desc>
    <g id="pay_waiting" stroke="none" stroke-width="1" fill="none" fill-rule="evenodd">
        <g id="订单管理" transform="translate(25.000000, 25.000000)" fill="#FFFFFF" fill-rule="nonzero">
            <path d="M38.640875,1 C29.6386719,0.864807918 21.6567383,0.864807918 11.3649632,1 C5.11277266,1 0,6.11277317 0,12.3649644 L0,39.6350356 C0,45.8872268 5.11277266,51 11.3649632,51 L38.6350318,51 C44.8872223,51 49.999995,45.8872268 49.999995,39.6350356 L49.999995,12.3649644 C50.0058382,6.11277317 44.8872223,1 38.640875,1 Z M21.0237212,42.4748159 L11.9375938,42.4748159 C10.6871556,42.4748159 9.66460111,41.4522613 9.66460111,40.2018231 C9.66460111,38.9513848 10.6871556,37.9288302 11.9375938,37.9288302 L21.0295643,37.9288302 C22.2800024,37.9288302 23.302557,38.9513848 23.302557,40.2018231 C23.2967138,41.4522613 22.2741593,42.4748159 21.0237212,42.4748159 Z M38.640875,31.1156948 L11.3649632,31.1156948 C10.1145251,31.1156948 9.09197058,30.0931401 9.09197058,28.8427019 C9.09197058,27.5922636 10.1145251,26.569709 11.3649632,26.569709 L38.6350318,26.569709 C39.8854699,26.569709 40.9080244,27.5922636 40.9080244,28.8427019 C40.9138676,30.0931401 39.8913131,31.1156948 38.640875,31.1156948 Z M38.8278564,19.7507304 L11.5577878,19.7507304 C10.3073497,19.7507304 9.28479515,18.7281758 9.28479515,17.4777375 C9.28479515,16.2272993 10.3073497,15.2047447 11.5577878,15.2047447 L38.8278564,15.2047447 C40.0782945,15.2047447 41.100849,16.2272993 41.100849,17.4777375 C41.100849,18.7281758 40.0782945,19.7507304 38.8278564,19.7507304 Z" id="形状"></path>
        </g>
        <g id="支付成功" transform="translate(11.000000, 11.000000)" fill="#EF8641">
            <path d="M0,39 C2.63777963e-15,60.5391052 17.4608948,78 39,78 C60.5391052,78 78,60.5391052 78,39 C78,17.4608948 60.5391052,1.31888981e-15 39,0 C17.4608948,-1.31888981e-15 2.63777963e-15,17.4608948 0,39 Z" id="路径">
				
			</path>
        </g>
        <g id="哭" fill="#EF8641">
            <path d="M50,99.9412916 C22.446184,99.9412916 0.0587084149,77.553816 0.0587084149,50 C0.0587084149,22.446184 22.446184,0.0587084149 50,0.0587084149 C77.553816,0.0587084149 99.9412916,22.446184 99.9412916,50 C99.9412916,59.3933464 97.2798434,68.630137 92.2700587,76.6144814 C91.3307241,78.0234834 89.4520548,78.4931507 87.8864971,77.553816 C86.4774951,76.6144814 86.0078278,74.7358121 86.9471624,73.1702544 C91.3307241,66.2818004 93.6790607,58.1409002 93.6790607,49.8434442 C93.6790607,25.890411 74.109589,6.32093933 50,6.32093933 C25.890411,6.32093933 6.32093933,25.890411 6.32093933,50 C6.32093933,74.109589 25.890411,93.6790607 50,93.6790607 C58.9236791,93.6790607 67.5342466,91.0176125 74.7358121,86.0078278 C76.1448141,85.0684932 78.1800391,85.3816047 79.1193738,86.7906067 C80.0587084,88.1996086 79.7455969,90.2348337 78.3365949,91.1741683 C69.8825832,96.9667319 60.1761252,99.9412916 50,99.9412916 Z" id="路径">
				<animateTransform attributeType="XML" attributeName="transform" begin="0s" dur="1s" type="rotate" from="0 50 50" to="360 50 50" repeatCount="indefinite" />
			</path>
        </g>
        <g id="人民币" transform="translate(33.000000, 29.000000)" fill="#FFFFFF" fill-rule="nonzero">
            <path d="M32.5537634,20.1480875 L19.7580645,20.1480875 L19.7580645,26.472676 L29.9193548,26.472676 C31.2741935,26.472676 32.3655914,27.5515764 32.3655914,28.890901 C32.3655914,30.2302256 31.2741935,31.309126 29.9193548,31.309126 L19.7580645,31.309126 L19.7580645,42.581775 C19.7580645,43.9210996 18.6666667,45 17.311828,45 C15.9569892,45 14.8655914,43.9210996 14.8655914,42.581775 L14.8655914,31.309126 L5.08064516,31.309126 C3.72580645,31.309126 2.6344086,30.2302256 2.6344086,28.890901 C2.6344086,27.5515764 3.72580645,26.472676 5.08064516,26.472676 L14.8655914,26.472676 L14.8655914,20.1480875 L2.44623656,20.1480875 C1.09139785,20.1480875 0,19.0691871 0,17.7298624 C0,16.3905378 1.09139785,15.3116374 2.44623656,15.3116374 L12.2311828,15.3116374 L1.69354839,4.1133954 C0.752688172,3.10890193 0.827956989,1.58355999 1.84408602,0.653473448 C2.86021505,-0.276613099 4.44086022,-0.202206176 5.38172043,0.802287295 L17.3494624,13.6374816 L29.2795699,0.802287295 C30.2204301,-0.202206176 31.8010753,-0.276613099 32.8172043,0.653473448 C33.8333333,1.58355999 33.9086022,3.07169847 32.9677419,4.1133954 L22.4677419,15.3116374 L32.5537634,15.3116374 C33.9086022,15.3116374 35,16.3905378 35,17.7298624 C35,19.0691871 33.8709677,20.1480875 32.5537634,20.1480875 Z" id="形状">
				
			</path>
        
		
		
		</g>
    </g>
</svg>