
<svg width="18px" height="18px" viewBox="0 0 18 18" version="1.1" xmlns="http://www.w3.org/2000/svg" xmlns:xlink="http://www.w3.org/1999/xlink">
    <!-- Generator: Sketch 51.2 (57519) - http://www.bohemiancoding.com/sketch -->
    <desc>Created with Sketch.</desc>
    <defs></defs>
    <g id="Symbols" stroke="none" stroke-width="1" fill="none" fill-rule="evenodd">
        <g id="顶部栏图标/扫码" transform="translate(-1.000000, 0.000000)" stroke="#000000">
            <g id="扫码" transform="translate(1.000000, 0.000000)">
                <g id="Group-5">
                    <path d="M0.25,4.75 L0.5,4.75 L0.5,5.25 L0.25,5 L0.25,4.75 Z M0.772979295,2.64254192 C1.19490309,1.84797513 1.84797513,1.19490309 2.64254192,0.772979295 C1.80115678,1.12733952 1.12733952,1.80115678 0.772979295,2.64254192 Z M4.75,0.25 L5,0.25 L5.125,0.375 L5,0.5 L4.75,0.5 L4.75,0.25 Z M0.25,12.25 L0.375,12.125 L0.5,12.25 L0.5,12.5 L0.25,12.5 L0.25,12.25 Z M0.772979295,15.3574581 C1.12733952,16.1988432 1.80115678,16.8726605 2.64254192,17.2270207 C1.84797513,16.8050969 1.19490309,16.1520249 0.772979295,15.3574581 Z M4.75,17.5 L5,17.5 L5.125,17.625 L5,17.75 L4.75,17.75 L4.75,17.5 Z M17.75,5 L17.5,5.25 L17.5,4.75 L17.75,4.75 L17.75,5 Z M17.2270207,2.64254192 C16.8726605,1.80115678 16.1988432,1.12733952 15.3574581,0.772979295 C16.1520249,1.19490309 16.8050969,1.84797513 17.2270207,2.64254192 Z M13.25,0.5 L12.75,0.5 L13,0.25 L13.25,0.25 L13.25,0.5 Z M17.625,12.125 L17.75,12.25 L17.75,12.5 L17.5,12.5 L17.5,12.25 L17.625,12.125 Z M17.2270207,15.3574581 C16.8050969,16.1520249 16.1520249,16.8050969 15.3574581,17.2270207 C16.1988432,16.8726605 16.8726605,16.1988432 17.2270207,15.3574581 Z M13.25,17.75 L13,17.75 L12.75,17.5 L13.25,17.5 L13.25,17.75 Z" id="Combined-Shape"></path>
                </g>
                <path d="M1.05882353,9.52941176 L16.9411765,9.52941176" id="Line"></path>
            </g>
        </g>
    </g>
</svg>